<?xml version="1.0" standalone="no"?>
<!DOCTYPE svg PUBLIC "-//W3C//DTD SVG 1.1//EN" "http://www.w3.org/Graphics/SVG/1.1/DTD/svg11.dtd" >
<svg xmlns="http://www.w3.org/2000/svg">
<metadata>Generated by IcoMoon</metadata>
<defs>
<font id="climb" horiz-adv-x="1024">
<font-face units-per-em="1024" ascent="960" descent="-64" />
<missing-glyph horiz-adv-x="1024" />
<glyph unicode="&#x20;" horiz-adv-x="512" d="" />
<glyph unicode="&#xe900;" glyph-name="arrow_down" d="M316.16 618.88l-60.16-60.16 256-256 256 256-60.16 60.16-195.84-195.413-195.84 195.413z" />
<glyph unicode="&#xe901;" glyph-name="arrow_left" d="M670.080 656.64l-60.16 60.16-256-256 256-256 60.16 60.16-195.413 195.84 195.413 195.84z" />
<glyph unicode="&#xe902;" glyph-name="arrow_right" d="M549.333 460.8l-195.413-195.84 60.16-60.16 256 256-256 256-60.16-60.16 195.413-195.84z" />
<glyph unicode="&#xe903;" glyph-name="arrow_up" d="M512 498.133l195.84-195.413 60.16 60.16-256 256-256-256 60.16-60.16 195.84 195.413z" />
<glyph unicode="&#xe904;" glyph-name="calendar" d="M810.667 802.133h-42.667v85.333h-85.333v-85.333h-341.333v85.333h-85.333v-85.333h-42.667c-47.317 0-84.907-38.4-84.907-85.333l-0.427-597.333c0-46.933 38.016-85.333 85.333-85.333h597.333c46.933 0 85.333 38.4 85.333 85.333v597.333c0 46.933-38.4 85.333-85.333 85.333zM810.667 119.467h-597.333v469.333h597.333v-469.333zM298.667 503.467h213.333v-213.333h-213.333v213.333z" />
<glyph unicode="&#xe905;" glyph-name="close" d="M810.667 699.307l-60.16 60.16-238.507-238.507-238.507 238.507-60.16-60.16 238.507-238.507-238.507-238.507 60.16-60.16 238.507 238.507 238.507-238.507 60.16 60.16-238.507 238.507 238.507 238.507z" />
<glyph unicode="&#xe906;" glyph-name="cloudy_outline" d="M786.773 127.147h-510.293c-140.715 0-255.147 114.475-255.147 255.147 0 127.232 92.672 233.813 217.173 252.16 55.723 98.944 159.573 160 273.493 160 144.427 0 270.379-99.499 304.939-238.635 105.259-14.635 185.728-105.344 185.728-212.736 0-119.083-96.896-215.936-215.893-215.936zM512 755.2c-102.741 0-196.096-56.704-243.669-148.011l-4.821-9.344-10.496-1.109c-109.696-11.648-192.427-103.851-192.427-214.443 0-119.040 96.896-215.893 215.936-215.893h510.293c97.365 0 176.64 79.232 176.64 176.64 0 91.819-72.021 168.747-163.883 175.104l-14.976 1.024-2.944 14.677c-25.643 128.299-139.051 221.355-269.653 221.355z" />
<glyph unicode="&#xe907;" glyph-name="cloudy" d="M812.928 540.928c-28.203 141.099-152.064 246.997-300.928 246.997-118.187 0-220.8-67.072-271.915-165.205-123.093-13.056-218.752-117.376-218.752-243.712 0-135.381 109.952-245.333 245.333-245.333h531.541c112.853 0 204.459 91.605 204.459 204.459 0 107.989-83.797 195.456-189.739 202.795z" />
<glyph unicode="&#xe908;" glyph-name="colours" d="M512 844.8c-212.096 0-384-171.947-384-384s171.904-384 384-384c35.413 0 64 28.587 64 64 0 16.683-6.4 31.573-16.683 43.093-9.771 11.093-16.171 26.027-16.171 42.24 0 35.413 28.587 64 64 64h75.52c117.76 0 213.333 95.573 213.333 213.333 0 188.587-171.904 341.333-384 341.333zM277.333 460.8c-35.413 0-64 28.587-64 64s28.587 64 64 64 64-28.587 64-64-28.587-64-64-64zM405.333 631.467c-35.413 0-64 28.587-64 64s28.587 64 64 64 64-28.587 64-64-28.587-64-64-64zM618.667 631.467c-35.413 0-64 28.587-64 64s28.587 64 64 64 64-28.587 64-64-28.587-64-64-64zM746.667 460.8c-35.413 0-64 28.587-64 64s28.587 64 64 64 64-28.587 64-64-28.587-64-64-64z" />
<glyph unicode="&#xe909;" glyph-name="delete" d="M256 162.133c0-46.933 38.4-85.333 85.333-85.333h341.333c46.933 0 85.333 38.4 85.333 85.333v512h-512v-512zM810.667 802.133h-149.333l-42.667 42.667h-213.333l-42.667-42.667h-149.333v-85.333h597.333v85.333z" />
<glyph unicode="&#xe90a;" glyph-name="edit" d="M127.957 236.757v-160h160l471.936 471.936-160 160-471.936-471.936zM883.584 672.384c16.64 16.64 16.64 43.563 0 60.16l-99.84 99.84c-16.64 16.64-43.563 16.64-60.16 0l-78.080-78.080 160-160 78.080 78.080z" />
<glyph unicode="&#xe90b;" glyph-name="foot" d="M414.293 741.248c-44.501-9.088-77.568-22.272-101.632-38.229-24.021-15.872-39.040-34.56-47.403-54.656-8.277-20.011-9.813-41.472-7.040-62.976s9.941-43.051 19.2-63.147c9.259-20.181 23.381-34.005 38.784-45.44 15.403-11.563 32.213-20.693 46.592-31.488 23.339-14.379 52.096-79.147 36.608-110.464-30.635-62.080-75.563-45.525-110.763-105.088-21.12-31.787-29.653-61.995-29.397-89.259 0.427-27.179 9.899-51.328 25.216-70.741 15.189-19.285 36.267-34.048 59.691-42.453 22.443-1.92 43.477-0.043 63.403 5.461 19.84 5.504 38.741 14.677 57.088 27.307 18.347 12.672 36.096 28.843 53.931 48.341 17.749 19.499 35.456 42.368 53.675 68.437 18.261 26.069 35.499 53.589 51.243 81.28 15.701 27.605 29.909 55.381 41.771 81.792s21.504 51.541 28.075 73.899c6.571 22.4 10.24 42.112 10.24 57.6 0 15.616-2.304 31.872-6.571 48.299-4.181 16.512-10.325 33.195-18.219 49.664-7.808 16.469-17.28 32.683-28.032 48.213-10.88 15.488-23.040 30.379-36.181 43.989-13.184 13.611-28.203 26.197-44.288 37.333-16.213 10.965-33.408 20.523-51.115 27.904-17.664 7.381-35.755 12.629-53.461 15.275-17.707 2.56-35.029 2.517-51.413-0.853zM323.797 729.771c7.637 0 14.891 2.091 21.547 5.888 6.528 3.797 12.501 9.301 17.493 16.128 4.949 6.784 9.045 14.848 11.819 23.808 2.816 9.045 4.395 18.859 4.395 29.227 0 10.411-1.579 20.267-4.395 29.227s-6.869 17.067-11.819 23.893c-4.992 6.741-10.965 12.288-17.493 16.043-6.656 3.84-13.909 5.931-21.547 5.931s-14.891-2.091-21.504-5.888c-6.571-3.755-12.501-9.301-17.493-16.043-5.035-6.827-9.045-14.933-11.861-23.893-2.688-8.96-4.352-18.859-4.352-29.227s1.621-20.224 4.352-29.227c2.816-8.96 6.827-17.024 11.861-23.808 4.992-6.827 10.923-12.373 17.493-16.128 6.613-3.797 13.867-5.931 21.504-5.931zM484.907 757.163c5.845 0 11.392 1.152 16.384 3.243 5.035 2.091 9.6 5.163 13.355 8.917 3.755 3.797 6.869 8.235 9.003 13.184 2.091 4.992 3.285 10.411 3.285 16.128 0 5.76-1.195 11.221-3.285 16.171-2.133 4.992-5.248 9.429-9.003 13.227-3.797 3.755-8.32 6.741-13.355 8.875-4.992 2.091-10.539 3.285-16.384 3.285-5.675 0-11.264-1.195-16.256-3.285-5.035-2.133-9.557-5.077-13.355-8.875-3.755-3.797-6.869-8.235-8.96-13.227-2.133-4.949-3.285-10.453-3.285-16.171 0-5.675 1.152-11.136 3.285-16.128 2.091-4.907 5.205-9.387 8.96-13.184 3.84-3.755 8.32-6.827 13.355-8.917s10.581-3.243 16.256-3.243zM597.461 704.213c4.821 0 9.472 0.896 13.653 2.645 4.309 1.835 8.021 4.352 11.179 7.509 3.2 3.157 5.803 6.912 7.637 11.093 1.792 4.139 2.688 8.747 2.688 13.568s-0.896 9.429-2.688 13.525c-1.835 4.181-4.437 7.893-7.637 11.008-3.157 3.243-6.869 5.76-11.179 7.467-4.224 1.792-8.832 2.773-13.653 2.773-4.864 0-9.557-1.024-13.696-2.773-4.181-1.749-8.021-4.224-11.221-7.467-3.115-3.115-5.76-6.827-7.595-11.008-1.707-4.139-2.688-8.747-2.688-13.525 0-4.821 1.024-9.429 2.688-13.568 1.877-4.181 4.437-7.893 7.595-11.093 3.2-3.157 7.040-5.632 11.221-7.509 4.139-1.749 8.832-2.688 13.696-2.645zM687.915 694.357c-4.48 0-8.832-0.896-12.843-2.603-3.925-1.664-7.467-4.053-10.411-6.997-2.987-2.987-5.419-6.485-7.083-10.368-1.664-3.925-2.645-8.192-2.645-12.757 0.043-4.48 0.981-8.789 2.645-12.629 1.664-3.925 4.096-7.467 7.083-10.453 2.944-2.944 6.485-5.291 10.411-6.955 4.011-1.621 8.32-2.603 12.843-2.56 4.565 0 8.96 0.896 12.885 2.56 3.968 1.664 7.595 4.011 10.496 6.955 2.987 2.944 5.419 6.485 7.125 10.453 1.664 3.84 2.56 8.149 2.56 12.629 0 4.523-0.896 8.832-2.56 12.757-1.707 3.883-4.139 7.381-7.125 10.368-2.901 2.944-6.528 5.333-10.496 6.997-3.925 1.664-8.32 2.603-12.885 2.603zM750.464 575.104c-4.096 0-7.893-0.853-11.392-2.304-3.499-1.493-6.656-3.541-9.301-6.229-2.645-2.56-4.779-5.675-6.315-9.088-1.451-3.499-2.219-7.339-2.261-11.349 0.043-3.968 0.811-7.808 2.261-11.264 1.536-3.456 3.669-6.528 6.315-9.216 2.645-2.56 5.803-4.651 9.301-6.187 3.499-1.451 7.296-2.219 11.392-2.219s7.936 0.768 11.392 2.219c3.499 1.493 6.656 3.627 9.344 6.187 2.603 2.688 4.779 5.803 6.229 9.216 1.493 3.499 2.304 7.296 2.304 11.264 0 4.011-0.811 7.851-2.304 11.307-1.451 3.413-3.669 6.528-6.229 9.131-2.645 2.645-5.845 4.693-9.344 6.187-3.499 1.536-7.296 2.347-11.392 2.347z" />
<glyph unicode="&#xe90c;" glyph-name="home" d="M426.667 98.133v256h170.667v-256h213.333v341.333h128l-426.667 384-426.667-384h128v-341.333h213.333z" />
<glyph unicode="&#xe90d;" glyph-name="menu" d="M128 204.8h768v85.333h-768v-85.333zM128 418.133h768v85.333h-768v-85.333zM128 716.8v-85.333h768v85.333h-768z" />
<glyph unicode="&#xe90e;" glyph-name="notifications" d="M512 44.8c46.933 0 85.333 38.4 85.333 85.333h-170.667c0-46.933 38.016-85.333 85.333-85.333zM768 300.8v213.333c0 130.987-70.016 240.683-192 269.653v29.013c0 35.413-28.587 64-64 64s-64-28.587-64-64v-29.013c-122.453-28.971-192-138.24-192-269.653v-213.333l-85.333-85.333v-42.667h682.667v42.667l-85.333 85.333z" />
<glyph unicode="&#xe90f;" glyph-name="path" d="M981.333 631.467c0-46.933-38.4-85.333-85.333-85.333-7.68 0-14.933 0.853-21.76 2.987l-151.893-151.467c2.133-6.869 2.987-14.507 2.987-22.187 0-46.933-38.4-85.333-85.333-85.333s-85.333 38.4-85.333 85.333c0 7.68 0.853 15.317 2.987 22.187l-108.8 108.8c-6.869-2.133-14.507-2.987-22.187-2.987s-15.317 0.853-22.187 2.987l-194.133-194.56c2.133-6.827 2.987-14.080 2.987-21.76 0-46.933-38.4-85.333-85.333-85.333s-85.333 38.4-85.333 85.333 38.4 85.333 85.333 85.333c7.68 0 14.933-0.853 21.76-2.987l194.56 194.133c-2.133 6.869-2.987 14.507-2.987 22.187 0 46.933 38.4 85.333 85.333 85.333s85.333-38.4 85.333-85.333c0-7.68-0.853-15.317-2.987-22.187l108.843-108.843c6.827 2.176 14.464 3.029 22.144 3.029s15.317-0.853 22.187-2.987l151.467 151.893c-2.133 6.827-2.987 14.080-2.987 21.76 0 46.933 38.4 85.333 85.333 85.333s85.333-38.4 85.333-85.333z" />
<glyph unicode="&#xe910;" glyph-name="radio_btn_empty" d="M512 844.8c-212.181 0-384-171.861-384-384s171.819-384 384-384 384 171.861 384 384-171.819 384-384 384zM512 153.6c-169.728 0-307.2 137.472-307.2 307.2s137.472 307.2 307.2 307.2 307.2-137.472 307.2-307.2-137.472-307.2-307.2-307.2z" />
<glyph unicode="&#xe911;" glyph-name="radio_btn_full" d="M512 652.8c-105.941 0-192-86.016-192-192s86.059-192 192-192 192 86.016 192 192-86.059 192-192 192zM512 844.8c-212.181 0-384-171.861-384-384s171.819-384 384-384 384 171.861 384 384-171.819 384-384 384zM512 153.6c-169.728 0-307.2 137.472-307.2 307.2s137.472 307.2 307.2 307.2 307.2-137.472 307.2-307.2-137.472-307.2-307.2-307.2z" />
<glyph unicode="&#xe912;" glyph-name="rain_outline" d="M811.264 298.453h-582.016c-114.645 0.213-207.915 94.891-207.915 210.987 0 86.443 51.925 163.584 130.261 195.456 15.915 65.152 73.344 111.317 140.672 111.317 16.171 0 32.043-2.688 47.317-8.107 46.379 82.816 134.144 135.339 228.437 135.339 141.312 0 257.024-113.835 262.741-255.957 96.597-10.283 172.032-93.397 171.861-194.005 0.043-107.136-85.845-194.645-191.36-195.029zM292.267 776.96c-50.987 0-95.787-38.613-104.235-89.813l-1.92-11.563-11.093-3.84c-68.437-23.509-114.432-88.789-114.432-162.304 0-94.507 75.648-171.563 168.704-171.691h581.845c83.968 0.299 152.277 70.229 152.277 155.776 0.171 85.76-68.309 155.563-152.491 155.776l-19.584 0.043 0.256 25.003c0.171 127.659-100.181 229.845-223.531 229.845-86.784 0-164.053-49.621-201.643-129.621l-8.576-18.261-18.048 9.131c-15.189 7.637-31.189 11.52-47.531 11.52zM247.68 107.179c-35.925 0-65.109 29.227-65.109 65.109 0 40.661 45.483 91.179 50.688 96.811l14.421 15.616 14.421-15.616c5.205-5.589 50.773-56.064 50.773-96.811 0-35.925-29.269-65.109-65.195-65.109zM247.68 225.024c-13.312-17.792-25.856-39.424-25.856-52.693 0-14.251 11.563-25.856 25.856-25.856s25.941 11.605 25.941 25.856c0 13.269-12.629 34.901-25.941 52.693zM406.315-21.845c-35.925 0-65.109 29.227-65.109 65.109 0 40.619 45.483 91.179 50.731 96.853l14.379 15.616 14.421-15.616c5.248-5.675 50.731-56.192 50.731-96.853 0.043-35.883-29.184-65.109-65.152-65.109zM406.315 95.957c-13.312-17.792-25.856-39.424-25.856-52.651 0-14.293 11.605-25.856 25.856-25.856 14.336 0 25.899 11.563 25.899 25.856 0.043 14.037-13.355 35.925-25.899 52.651zM451.883 147.712c-35.968 0-65.152 29.269-65.152 65.195 0 40.576 45.483 91.179 50.688 96.853l14.464 15.659 14.379-15.659c5.248-5.632 50.773-56.235 50.773-96.853 0-35.925-29.227-65.195-65.152-65.195zM451.883 265.6c-13.312-17.792-25.856-39.424-25.856-52.651 0-14.336 11.563-25.941 25.856-25.941s25.899 11.605 25.899 25.941c0 13.995-13.397 35.883-25.899 52.651zM610.56 31.445c-35.925 0-65.109 29.227-65.109 65.067 0 40.661 45.483 91.264 50.688 96.896l14.421 15.659 14.464-15.659c5.163-5.632 50.688-56.192 50.688-96.896-0.043-35.883-29.269-65.067-65.152-65.067zM610.56 149.205c-13.312-17.792-25.856-39.424-25.856-52.693 0-14.251 11.605-25.813 25.856-25.813 14.293 0 25.856 11.563 25.856 25.813 0 13.269-12.544 34.901-25.856 52.693zM741.931 147.669c-35.925 0-65.152 29.269-65.152 65.152 0 40.661 45.525 91.221 50.731 96.853l14.421 15.616 14.421-15.616c5.205-5.632 50.731-56.149 50.731-96.853 0-35.883-29.269-65.152-65.152-65.152zM741.888 265.557c-13.312-17.792-25.856-39.424-25.856-52.693 0-14.251 11.605-25.899 25.899-25.899s25.899 11.648 25.899 25.899c0 14.080-13.355 35.925-25.941 52.693z" />
<glyph unicode="&#xe913;" glyph-name="rain" d="M823.424 677.589c0 2.603 0.427 5.291 0.427 7.808 0 142.421-113.536 257.707-253.483 257.707-101.035 0-187.733-60.032-228.523-146.773-17.749 9.003-37.632 14.251-58.752 14.251-64.555 0-118.443-48.043-128.768-110.72-77.483-26.624-132.992-100.949-132.992-188.373 0-109.909 87.808-199.125 196.139-199.339h606.208c99.072 0.384 178.987 82.133 178.987 182.741 0.171 100.736-80.256 182.485-179.243 182.699zM189.269 160.299c0-26.197 21.205-47.403 47.403-47.403 26.24 0 47.488 21.205 47.488 47.403 0 35.627-47.488 86.997-47.488 86.997s-47.403-51.371-47.403-86.997zM354.56 25.899c0-26.155 21.205-47.403 47.403-47.403s47.445 21.248 47.445 47.403c0 35.541-47.445 86.997-47.445 86.997s-47.403-51.456-47.403-86.997zM401.963 202.624c0-26.24 21.248-47.531 47.403-47.531 26.24 0 47.488 21.291 47.488 47.531 0 35.499-47.488 86.997-47.488 86.997s-47.403-51.499-47.403-86.997zM567.253 81.323c0-26.197 21.248-47.36 47.403-47.36 26.24 0 47.403 21.163 47.403 47.36 0 35.584-47.403 87.040-47.403 87.040s-47.403-51.456-47.403-87.040zM704.043 202.539c0-26.155 21.248-47.445 47.445-47.445s47.445 21.291 47.445 47.445c0 35.584-47.445 86.997-47.445 86.997s-47.445-51.413-47.445-86.997z" />
<glyph unicode="&#xe914;" glyph-name="snow_outline" d="M576 12.8h-128v147.755l-116.864-116.864-90.837 90.24 207.701 207.744v55.125h-55.168l-207.701-207.744-90.24 90.88 116.864 116.864h-147.755v128h147.755l-116.864 116.864 90.24 90.88 207.701-207.744h55.168v55.168l-207.701 207.744 90.837 90.24 116.864-116.907v147.755h128v-147.755l116.864 116.864 90.837-90.24-207.701-207.701v-55.168h55.168l207.701 207.744 90.24-90.88-116.864-116.864h147.755v-128h-147.755l116.864-116.864-90.24-90.88-207.701 207.744h-55.168v-55.168l207.701-207.744-90.837-90.24-116.864 116.907v-147.755zM490.667 55.467h42.667v208.085l159.616-159.616 30.336 30.123-189.952 189.909v115.499h115.499l189.952-189.952 30.080 30.293-159.616 159.659h208.085v42.667h-208.085l159.616 159.616-30.080 30.293-189.952-189.909h-115.499v115.499l189.952 189.952-30.336 30.123-159.616-159.659v208.085h-42.667v-208.085l-159.616 159.616-30.336-30.080 189.952-189.952v-115.499h-115.499l-189.952 189.952-30.080-30.293 159.616-159.659h-208.085v-42.667h208.085l-159.616-159.616 30.080-30.293 189.952 189.909h115.499v-115.499l-189.952-189.952 30.336-30.123 159.616 159.616v-208.043z" />
<glyph unicode="&#xe915;" glyph-name="snow" d="M938.667 503.467h-177.92l138.24 138.24-60.16 60.587-198.827-198.827h-85.333v85.333l198.827 198.827-60.587 60.16-138.24-138.24v177.92h-85.333v-177.92l-138.24 138.24-60.587-60.16 198.827-198.827v-85.333h-85.333l-198.827 198.827-60.16-60.587 138.24-138.24h-177.92v-85.333h177.92l-138.24-138.24 60.16-60.587 198.827 198.827h85.333v-85.333l-198.827-198.827 60.587-60.16 138.24 138.24v-177.92h85.333v177.92l138.24-138.24 60.587 60.16-198.827 198.827v85.333h85.333l198.827-198.827 60.16 60.587-138.24 138.24h177.92v85.333z" />
<glyph unicode="&#xe916;" glyph-name="star" d="M939.52 555.861c-3.072 9.429-11.477 16.085-21.291 16.896l-286.635 24.619-111.872 264.192c-3.84 9.088-12.715 15.019-22.613 15.019-9.856 0-18.773-5.931-22.613-15.019l-112-264.192-286.592-24.619c-9.813-0.853-18.219-7.509-21.248-16.896-3.072-9.387-0.213-19.669 7.296-26.155l217.344-188.416-65.195-280.32c-2.219-9.643 1.536-19.669 9.515-25.472s18.731-6.315 27.179-1.195l246.315 148.565 246.229-154.069c3.968-2.347 17.707-9.045 27.307-3.115 0.341 0 13.483 6.357 11.008 24.192-0.64 4.309-1.109 11.221-3.072 14.763l-63.659 275.328 217.344 189.056c7.381 6.443 10.283 17.451 7.253 26.837z" />
<glyph unicode="&#xe917;" glyph-name="statistics" d="M426.667 119.467h170.667v682.667h-170.667v-682.667zM170.667 119.467h170.667v341.333h-170.667v-341.333zM682.667 588.8v-469.333h170.667v469.333h-170.667z" />
<glyph unicode="&#xe918;" glyph-name="sun_outline" d="M576-27.733h-128v168.533h128v-168.533zM490.667 14.933h42.667v83.2h-42.667v-83.2zM811.861 69.632l-106.411 107.051 89.813 89.813 107.008-106.453-90.411-90.411zM765.696 176.597l46.251-46.549 29.909 29.909-46.507 46.293-29.653-29.653zM211.669 70.059l-90.325 90.325 106.453 107.051 90.325-90.325-106.453-107.051zM181.589 160.469l29.995-29.995 46.293 46.549-29.995 29.995-46.293-46.549zM512 183.467c-152.917 0-277.333 124.416-277.333 277.333s124.416 277.333 277.333 277.333 277.333-124.416 277.333-277.333-124.416-277.333-277.333-277.333zM512 695.467c-129.365 0-234.667-105.259-234.667-234.667s105.301-234.667 234.667-234.667 234.667 105.259 234.667 234.667-105.301 234.667-234.667 234.667zM1002.667 396.8h-170.667v128h170.667v-128zM874.667 439.467h85.333v42.667h-85.333v-42.667zM192 396.8h-170.667v128h170.667v-128zM64 439.467h85.333v42.667h-85.333v-42.667zM796.16 654.635l-90.325 90.325 106.539 106.539 90.325-90.325-106.539-106.539zM766.165 744.96l29.995-29.995 46.208 46.208-29.995 29.995-46.208-46.208zM227.797 654.677l-106.496 106.496 90.283 90.283 107.093-106.539-90.88-90.24zM181.632 761.173l46.251-46.251 30.293 30.080-46.507 46.208-30.037-30.037zM576 780.8h-128v168.533h128v-168.533zM490.667 823.467h42.667v83.2h-42.667v-83.2z" />
<glyph unicode="&#xe919;" glyph-name="sun" d="M288.427 744.96l-76.8 76.373-60.16-60.16 76.373-76.373 60.587 60.16zM170.667 503.467h-128v-85.333h128v85.333zM554.667 928h-85.333v-125.867h85.333v125.867zM872.533 761.173l-60.16 60.16-76.373-76.373 60.16-60.16 76.373 76.373zM735.573 176.64l76.331-76.8 60.16 60.16-76.757 76.373-59.733-59.733zM853.333 503.467v-85.333h128v85.333h-128zM512 716.8c-141.269 0-256-114.731-256-256s114.731-256 256-256 256 114.731 256 256-114.731 256-256 256zM469.333-6.4h85.333v125.867h-85.333v-125.867zM151.467 160.427l60.16-60.16 76.373 76.8-60.16 60.16-76.373-76.8z" />
<glyph unicode="&#xe91a;" glyph-name="trip" d="M942.293 585.173c0 165.12-133.547 298.667-298.667 298.667s-298.667-133.547-298.667-298.667c0-148.096 107.52-270.507 248.747-294.016v-168.064h-341.333v128h42.667v170.667c0 23.467-19.2 42.667-42.667 42.667h-128c-23.467 0-42.667-19.2-42.667-42.667v-170.667h42.667v-213.333h682.667v85.333h-128v165.547c148.096 17.493 263.253 143.36 263.253 296.533zM188.373 507.093c35.413 0 64 28.587 64 64s-28.587 64-64 64-64-28.587-64-64 28.587-64 64-64z" />
</font>
</defs>
</svg>
